<?xml version="1.0" standalone="no"?><!DOCTYPE svg PUBLIC "-//W3C//DTD SVG 1.1//EN" "http://www.w3.org/Graphics/SVG/1.1/DTD/svg11.dtd"><svg t="1558758026411" class="icon" style="" viewBox="0 0 1024 1024" version="1.1" xmlns="http://www.w3.org/2000/svg" p-id="15238" xmlns:xlink="http://www.w3.org/1999/xlink" width="200" height="200"><defs><style type="text/css"></style></defs><path d="M511.952 355.616c-86.496 0-156.864 70.128-156.864 156.352 0 86.208 70.352 156.368 156.864 156.368s156.912-70.176 156.912-156.368c0-86.224-70.4-156.352-156.912-156.352z m0 230.384c-41.104 0-74.544-33.2-74.544-74.032 0-40.832 33.44-74.048 74.544-74.048 41.136 0 74.576 33.216 74.576 74.048s-33.44 74.032-74.576 74.032z" p-id="15239"></path><path d="M263.824 511.952c0-79.104 38.576-154 103.168-200.32L319.024 244.736C232.944 306.496 181.536 406.384 181.536 511.952c0.016 110.176 54.976 212.576 147.008 273.872l45.616-68.496c-69.072-46.032-110.32-122.8-110.336-205.376zM834.912 511.424c0-105.552-51.424-205.424-137.504-267.216l-48 66.896c64.608 46.336 103.168 121.232 103.168 200.288a246.528 246.528 0 0 1-110.336 205.392l45.648 68.496a328.848 328.848 0 0 0 147.024-273.856z" p-id="15240"></path><path d="M90.304 511.936c0-148.512 80.112-287.376 209.04-362.432l-41.392-71.136C103.76 168.096 8 334.224 8 511.936c-0.032 177.776 95.76 343.968 250.016 433.728l41.408-71.136C170.4 799.456 90.272 660.496 90.304 511.936zM765.952 78.336l-41.392 71.136c128.976 75.024 209.088 213.904 209.088 362.448 0 148.544-80.096 287.456-209.008 362.528l41.392 71.136C920.224 855.824 1016 689.664 1016 511.936s-95.824-343.888-250.048-433.6z" p-id="15241"></path></svg>