<?xml version="1.0" standalone="no"?><!DOCTYPE svg PUBLIC "-//W3C//DTD SVG 1.1//EN" "http://www.w3.org/Graphics/SVG/1.1/DTD/svg11.dtd"><svg t="1559199280813" class="icon" style="" viewBox="0 0 1024 1024" version="1.1" xmlns="http://www.w3.org/2000/svg" p-id="34493" xmlns:xlink="http://www.w3.org/1999/xlink" width="200" height="200"><defs><style type="text/css"></style></defs><path d="M512.01024 890.10688a23.296 23.296 0 0 1-15.1296-5.56544l-333.27104-283.75552a22.92736 22.92736 0 0 1-1.37216-1.26464l-23.50592-23.5008c-48.92672-48.9216-75.86816-113.95584-75.86816-183.13728 0-69.18144 26.94656-134.21568 75.86816-183.13216 48.91136-48.91648 113.9456-75.85792 183.12704-75.85792s134.2208 26.94144 183.13728 75.85792l7.00928 7.00928 7.00416-7.00416c48.91136-48.9216 113.95072-75.86304 183.1424-75.86304 69.18144 0 134.2208 26.94144 183.1424 75.85792 48.91136 48.91648 75.84256 113.95072 75.84256 183.12704s-26.93632 134.21568-75.84256 183.13216l-23.5264 23.51104a22.62016 22.62016 0 0 1-1.36704 1.25952l-333.2608 283.75552a23.296 23.296 0 0 1-15.1296 5.57056z" fill="#f596aa" p-id="34494"></path><path d="M194.58048 565.85216l317.42976 270.26944 317.41952-270.26944 22.8608-22.84544c82.75968-82.77504 82.75968-217.472-0.00512-300.24704-40.10496-40.10496-93.42464-62.18752-150.144-62.18752-56.70912 0-110.0288 22.08256-150.12864 62.18752l-23.5008 23.50592a23.3472 23.3472 0 0 1-33.00352 0.00512l-23.51104-23.51104c-40.10496-40.10496-93.42464-62.19264-150.13888-62.19264s-110.0288 22.08256-150.12352 62.18752c-40.11008 40.10496-62.19776 93.41952-62.19776 150.12864 0 56.71424 22.08768 110.0288 62.19264 150.12864l22.85056 22.84032z" fill="#f596aa" p-id="34495"></path></svg>