<?xml version="1.0" standalone="no"?><!DOCTYPE svg PUBLIC "-//W3C//DTD SVG 1.1//EN" "http://www.w3.org/Graphics/SVG/1.1/DTD/svg11.dtd"><svg class="icon" width="200px" height="200.00px" viewBox="0 0 1024 1024" version="1.1" xmlns="http://www.w3.org/2000/svg"><path fill="#515151" d="M954.181818 672.581818v186.181818c0 39.563636-39.563636 74.472727-86.109091 74.472728H155.927273c-46.545455 0-86.109091-32.581818-86.109091-74.472728v-186.181818c0-16.290909 13.963636-30.254545 30.254545-30.254545s30.254545 13.963636 30.254546 30.254545v186.181818c0 2.327273 9.309091 11.636364 23.272727 11.636364h712.145455c13.963636 0 23.272727-6.981818 23.272727-11.636364v-186.181818c0-16.290909 13.963636-30.254545 30.254545-30.254545 20.945455-2.327273 34.909091 11.636364 34.909091 30.254545z m-463.127273 67.490909c2.327273 2.327273 6.981818 4.654545 9.309091 6.981818 4.654545 2.327273 6.981818 2.327273 11.636364 2.327273s6.981818 0 11.636364-2.327273 6.981818-4.654545 9.309091-6.981818L807.563636 465.454545c11.636364-11.636364 11.636364-32.581818 0-44.218181s-32.581818-11.636364-44.218181 0l-221.09091 221.090909V123.345455c2.327273-16.290909-11.636364-30.254545-30.254545-30.254546-16.290909 0-30.254545 13.963636-30.254545 30.254546v518.981818l-221.09091-221.090909c-11.636364-11.636364-32.581818-11.636364-44.218181 0s-11.636364 32.581818 0 44.218181l274.618181 274.618182z"  /></svg>