<?xml version="1.0" standalone="no"?><!DOCTYPE svg PUBLIC "-//W3C//DTD SVG 1.1//EN" "http://www.w3.org/Graphics/SVG/1.1/DTD/svg11.dtd"><svg class="icon" width="200px" height="200.00px" viewBox="0 0 1024 1024" version="1.1" xmlns="http://www.w3.org/2000/svg"><path fill="#515151" d="M776.378182 351.883636c-57.716364-102.4-167.563636-165.701818-288.581818-165.701818-78.196364 0-156.392727 29.789091-215.970909 80.058182-53.992727 46.545455-91.229091 109.847273-106.123637 178.734545C80.058182 471.04 18.618182 549.236364 18.618182 638.603636c0 98.676364 74.472727 182.458182 171.287273 197.352728v1.861818h567.854545C893.672727 837.818182 1005.381818 727.970909 1005.381818 593.92c0-126.603636-100.538182-232.727273-229.003636-242.036364z m-18.618182 430.08H219.694545c-80.058182-1.861818-143.36-65.163636-143.36-143.36 0-68.887273 50.269091-128.465455 119.156364-141.498181l20.48-3.723637 3.723636-20.48c9.309091-63.301818 40.96-121.018182 91.229091-163.84 48.407273-42.821818 111.709091-67.025455 176.872728-67.025454 89.367273 0 173.149091 42.821818 223.418181 113.570909-59.578182 11.170909-115.432727 44.683636-152.66909 93.090909-9.309091 13.032727-7.447273 29.789091 5.585454 39.098182s29.789091 7.447273 39.098182-5.585455c37.236364-48.407273 91.229091-76.334545 152.669091-76.334545 104.261818 0 189.905455 83.781818 189.905454 186.181818 1.861818 106.123636-81.92 189.905455-188.043636 189.905454z" /></svg>