<?xml version="1.0" standalone="no"?><!DOCTYPE svg PUBLIC "-//W3C//DTD SVG 1.1//EN" "http://www.w3.org/Graphics/SVG/1.1/DTD/svg11.dtd"><svg t="1558714386984" class="icon" style="" viewBox="0 0 1024 1024" version="1.1" xmlns="http://www.w3.org/2000/svg" p-id="7300" xmlns:xlink="http://www.w3.org/1999/xlink" width="200" height="200"><defs><style type="text/css"></style></defs><path d="M862.6 608.2v200.7c0 29.4-24.8 54.2-54.2 54.2H216c-29.4 0-54.2-24.8-54.2-54.2V216.4c0-29.3 24.8-54.2 54.2-54.2h195.3V98.5H216c-65 0-117.9 52.9-117.9 117.9v592.5c0 65 52.9 117.9 117.9 117.9h592.5c65 0 117.9-52.9 117.9-117.9V608.2h-63.8zM394 595.9l46 44.1 392-414.7 0.7 95.3h68L901 98l-229.5 0.1v72h129.9L394 595.9z" fill="#666666" p-id="7301"></path></svg>