<?xml version="1.0" standalone="no"?><!DOCTYPE svg PUBLIC "-//W3C//DTD SVG 1.1//EN" "http://www.w3.org/Graphics/SVG/1.1/DTD/svg11.dtd"><svg t="1558760506468" class="icon" style="" viewBox="0 0 1024 1024" version="1.1" xmlns="http://www.w3.org/2000/svg" p-id="18698" xmlns:xlink="http://www.w3.org/1999/xlink" width="200" height="200"><defs><style type="text/css"></style></defs><path d="M1009.984 362.003c-16.574-58.879-85.929-98.235-184.878-114.811 14.746 17.491 28.17 36.203 39.866 56.033 55.12 15.865 92.436 40.471 101.079 71.083 4.98 17.794 0.711 38.643-12.711 61.83-14.541 25.119-40.577 53.286-76.981 81.557 0-1.83 0.306-3.561 0.306-5.39 0-201.859-163.621-365.483-365.483-365.483-201.859 0-365.483 163.621-365.483 365.483 0 61.83 15.457 119.997 42.507 170.942-72.305-14.746-121.827-42.61-131.997-78.709-4.98-17.794-0.711-38.54 12.711-61.83 7.321-12.61 18.508-26.235 31.524-40.065 0.51-23.694 2.948-46.983 7.321-69.659-73.929 60.508-111.658 126.098-95.489 183.859 17.9 63.76 97.626 104.742 209.892 118.47 66.813 86.437 171.25 142.371 289.008 142.371 179.182 0 327.956-129.047 359.173-299.279 102.812-68.643 158.844-148.063 139.623-216.401v0 0zM511.187 832.126c-87.353 0-166.468-35.085-224.13-91.927 7.83 0.205 15.558 0.405 23.593 0.405 79.421 0 169.011-11.185 261.247-34.779 91.728-23.489 174.401-56.338 243.044-93.962-41.899 127.926-161.893 220.263-303.754 220.263v0 0zM828.362 551.15c-67.117 42.203-157.214 82.166-267.756 110.436-85.522 21.865-171.961 33.354-249.961 33.354-22.576 0-43.728 1.931-64.169 0.102-34.779-51.152-55.12-116.235-55.12-182.739 0-176.639 143.183-319.82 319.82-319.82 176.639 0 319.82 143.183 319.82 319.82-0.102 13.219-1.122 26.137-2.644 38.844v0 0zM351.226 603.728c-50.335 0-91.319-40.98-91.319-91.319s40.98-91.319 91.319-91.319c50.439 0 91.319 40.98 91.319 91.319 0.102 50.335-40.88 91.319-91.319 91.319v0 0zM351.226 466.749c-25.221 0-45.658 20.441-45.658 45.658s20.542 45.658 45.658 45.658c25.221 0 45.658-20.441 45.658-45.658 0-25.221-20.441-45.658-45.658-45.658v0 0zM545.354 352.547c-31.524 0-57.149-25.627-57.149-57.149s25.627-57.149 57.149-57.149c31.524 0 57.149 25.627 57.149 57.149 0 31.524-25.627 57.149-57.149 57.149v0 0zM545.354 284.005c-6.304 0-11.388 5.086-11.388 11.388 0 6.304 5.086 11.388 11.388 11.388 6.304 0 11.388-5.086 11.388-11.388 0.102-6.304-5.086-11.388-11.388-11.388v0 0zM671.047 558.067c-25.221 0-45.658-20.441-45.658-45.658s20.542-45.658 45.658-45.658c25.221 0 45.658 20.441 45.658 45.658s-20.542 45.658-45.658 45.658v0 0zM671.047 558.067z" p-id="18699" fill="#F596AA"></path></svg>