<?xml version="1.0" standalone="no"?><!DOCTYPE svg PUBLIC "-//W3C//DTD SVG 1.1//EN" "http://www.w3.org/Graphics/SVG/1.1/DTD/svg11.dtd"><svg t="1558714330675" class="icon" style="" viewBox="0 0 1024 1024" version="1.1" xmlns="http://www.w3.org/2000/svg" p-id="5753" xmlns:xlink="http://www.w3.org/1999/xlink" width="200" height="200"><defs><style type="text/css"></style></defs><path d="M878.2 102.3c-125.5-58.2-295.1-7-368.1 51.7-80.2-56.2-251.5-108.2-375.5-45.1C73.2 140.1 0 212.9 0 382.4c0 247.4 366.5 513.2 478.8 588.7 10.1 6.8 21.7 10.2 33.2 10.2s23.1-3.4 33.2-10.2c112.3-75.5 478.8-341.3 478.8-588.7 0-175.5-79.3-249.2-145.8-280.1zM512 913.8C305.4 774.2 66.1 552.3 66.1 382.4c0-109.2 33.2-181.4 98.6-214.6 29.9-15.2 64.8-21.5 100.8-21.5 79.5 0 164 30.6 209.5 63.8 22.4 16.4 53 15.3 74.3-2.7 57.7-48.6 203.6-90.4 301.1-45.1 71.4 33.2 107.5 107.2 107.5 220.2 0 169.8-239.4 391.7-445.9 531.3z" p-id="5754" fill="#515151"></path></svg>