<?xml version="1.0" standalone="no"?><!DOCTYPE svg PUBLIC "-//W3C//DTD SVG 1.1//EN" "http://www.w3.org/Graphics/SVG/1.1/DTD/svg11.dtd"><svg t="1558714312322" class="icon" style="" viewBox="0 0 1114 1024" version="1.1" xmlns="http://www.w3.org/2000/svg" p-id="5478" xmlns:xlink="http://www.w3.org/1999/xlink" width="217.578125" height="200"><defs><style type="text/css"></style></defs><path d="M791.9968711111112 0c-98.19249777777779 0-175.39299555555553 48.973368888888885-235.4756266666667 129.71463111111112-60.05987555555555-80.76174222222222-137.21713777777776-129.71463111111112-235.4767644444444-129.71463111111112-177.0177422222222 0-321.04675555555554 156.53774222222222-321.04675555555554 348.96099555555554 0 114.79836444444445 51.57774222222223 195.31776 93.04974222222222 260.0288711111111 120.52024888888889 187.92675555555556 409.37699555555554 390.90175999999997 422.2213688888889 400.76288 12.355128888888888 9.504995555555555 26.823111111111107 14.247253333333333 41.24899555555555 14.247253333333333 14.470257777777777 0 28.895004444444446-4.763875555555556 41.24899555555555-14.247253333333333 12.844373333333332-9.862257777777778 301.7466311111111-212.83612444444444 422.19975111111114-400.76288 41.472-64.71224888888888 93.07249777777778-145.25212444444443 93.07249777777778-260.0288711111111 0-192.42325333333335-144.02673777777778-348.96099555555554-321.04675555555554-348.96099555555554z" p-id="5479" fill="#c2020c"></path></svg>