<?xml version="1.0" standalone="no"?><!DOCTYPE svg PUBLIC "-//W3C//DTD SVG 1.1//EN" "http://www.w3.org/Graphics/SVG/1.1/DTD/svg11.dtd"><svg t="1558715707329" class="icon" style="" viewBox="0 0 1024 1024" version="1.1" xmlns="http://www.w3.org/2000/svg" p-id="13663" xmlns:xlink="http://www.w3.org/1999/xlink" width="200" height="200"><defs><style type="text/css"></style></defs><path d="M784 371.2c-16-25.6-35.2-44.8-44.8-54.4-9.6-9.6-28.8-9.6-38.4 3.2-9.6 9.6-9.6 28.8 3.2 38.4l9.6 9.6c9.6 9.6 19.2 22.4 25.6 35.2 57.6 86.4 57.6 179.2-38.4 278.4-9.6 9.6-9.6 28.8 0 38.4 9.6 9.6 28.8 9.6 38.4 0 112-121.6 112-243.2 44.8-348.8z m112-124.8c-16-25.6-35.2-48-54.4-70.4-9.6-12.8-19.2-19.2-25.6-25.6-9.6-9.6-28.8-9.6-38.4 3.2-9.6 9.6-9.6 28.8 3.2 38.4 3.2 3.2 12.8 9.6 22.4 22.4 16 19.2 32 38.4 48 64 105.6 160 105.6 336-70.4 518.4-9.6 9.6-9.6 28.8 0 38.4 9.6 9.6 28.8 9.6 38.4 0 195.2-204.8 195.2-409.6 76.8-588.8z m-412.8-160L265.6 272H156.8C99.2 272 48 320 48 380.8v272c0 60.8 48 108.8 108.8 108.8h96L483.2 944c54.4 41.6 105.6 16 105.6-51.2V137.6c0-70.4-54.4-96-105.6-51.2z m51.2 803.2c0 22.4-3.2 22.4-19.2 9.6L278.4 713.6c-3.2-3.2-9.6-6.4-16-6.4H156.8c-28.8 0-54.4-25.6-54.4-54.4v-272c0-28.8 25.6-54.4 54.4-54.4h118.4c6.4 0 12.8-3.2 16-6.4l224-192c16-12.8 16-12.8 16 6.4v755.2z" fill="" p-id="13664"></path></svg>