<?xml version="1.0" standalone="no"?><!DOCTYPE svg PUBLIC "-//W3C//DTD SVG 1.1//EN" "http://www.w3.org/Graphics/SVG/1.1/DTD/svg11.dtd"><svg t="1558713915641" class="icon" style="" viewBox="0 0 1024 1024" version="1.1" xmlns="http://www.w3.org/2000/svg" p-id="2698" xmlns:xlink="http://www.w3.org/1999/xlink" width="200" height="200"><defs><style type="text/css"></style></defs><path d="M512.092915 1023.715639a511.850284 511.850284 0 1 1 511.622795-511.850284A511.850284 511.850284 0 0 1 512.092915 1023.715639z m194.417799-542.27694l-272.787765-136.493409a31.990643 31.990643 0 0 0-15.355508-3.696696 34.123352 34.123352 0 0 0-34.123353 34.123352v272.986818a34.123352 34.123352 0 0 0 16.151721 29.004849 31.564101 31.564101 0 0 0 18.000068 5.118503 33.270268 33.270268 0 0 0 15.355508-3.696696l272.787765-136.493409a34.123352 34.123352 0 0 0 18.824716-30.426656 33.440885 33.440885 0 0 0-18.824716-30.426656z m0 0" fill="#c2020c" p-id="2699"></path></svg>