<?xml version="1.0" standalone="no"?><!DOCTYPE svg PUBLIC "-//W3C//DTD SVG 1.1//EN" "http://www.w3.org/Graphics/SVG/1.1/DTD/svg11.dtd"><svg t="1558713992776" class="icon" style="" viewBox="0 0 1024 1024" version="1.1" xmlns="http://www.w3.org/2000/svg" p-id="1726" xmlns:xlink="http://www.w3.org/1999/xlink" width="200" height="200"><defs><style type="text/css"></style></defs><path d="M873.813333 150.186667c-95.573333-95.573333-225.28-150.186667-361.813333-150.186667s-266.24 54.613333-361.813333 150.186667c-95.573333 95.573333-150.186667 225.28-150.186667 361.813333s54.613333 266.24 150.186667 361.813333c95.573333 95.573333 225.28 150.186667 361.813333 150.186667s266.24-54.613333 361.813333-150.186667c197.973333-197.973333 197.973333-525.653333 0-723.626666z m-436.906666 542.72c0 17.066667-13.653333 27.306667-30.72 27.306666h-13.653334c-17.066667 0-30.72-13.653333-30.72-27.306666v-365.226667c0-17.066667 13.653333-27.306667 30.72-27.306667h13.653334c17.066667 0 30.72 13.653333 30.72 27.306667v365.226667z m225.28 0c0 17.066667-13.653333 27.306667-30.72 27.306666h-13.653334c-17.066667 0-30.72-13.653333-30.72-27.306666v-365.226667c0-17.066667 13.653333-27.306667 30.72-27.306667h13.653334c17.066667 0 30.72 13.653333 30.72 27.306667v365.226667z" p-id="1727" fill="#c2020c"></path></svg>