<?xml version="1.0" standalone="no"?><!DOCTYPE svg PUBLIC "-//W3C//DTD SVG 1.1//EN" "http://www.w3.org/Graphics/SVG/1.1/DTD/svg11.dtd"><svg t="1558758668084" class="icon" style="" viewBox="0 0 1024 1024" version="1.1" xmlns="http://www.w3.org/2000/svg" p-id="17792" xmlns:xlink="http://www.w3.org/1999/xlink" width="200" height="200"><defs><style type="text/css"></style></defs><path d="M 106.345 886.257 a 29.455 29.455 0 0 1 -29.41 -29.425 c 0 -74.722 23.613 -145.664 68.292 -205.161 a 346.308 346.308 0 0 1 76.605 -74.451 a 338.522 338.522 0 0 1 78.336 -41.442 a 219.934 219.934 0 0 1 -64.573 -66.214 a 215.612 215.612 0 0 1 -33.024 -115.034 c 0 -119.808 97.461 -217.254 217.269 -217.254 c 119.793 0 217.254 97.46 217.254 217.254 c 0 73.336 -36.021 140.198 -96.798 180.646 a 343.913 343.913 0 0 1 77.04 40.93 a 341.986 341.986 0 0 1 76.59 74.586 a 338.839 338.839 0 0 1 68.427 205.161 c 0 16.219 -13.192 29.425 -29.41 29.425 s -29.425 -13.206 -29.425 -29.425 c 0 -75.7 -29.455 -146.914 -82.929 -200.493 c -51.938 -52.194 -120.681 -81.74 -193.536 -83.185 l -0.798 0.361 c -2.319 0.467 -4.518 0.738 -6.64 0.738 c -0.844 0 -1.657 -0.045 -2.47 -0.12 c -74.3 0.015 -144.927 29.56 -198.446 83.185 c -53.474 53.85 -82.929 125.063 -82.929 200.493 a 29.47 29.47 0 0 1 -29.425 29.425 Z m 313.6 -690.161 c -87.356 0 -158.418 71.063 -158.418 158.419 s 71.062 158.419 158.418 158.419 S 578.38 441.87 578.38 354.514 s -71.077 -158.418 -158.434 -158.418 Z m 479.88 626.206 a 29.455 29.455 0 0 1 -29.425 -29.41 c 0 -130.123 -99.132 -235.987 -220.988 -235.987 a 29.47 29.47 0 1 1 0 -58.955 c 66.65 0 120.877 -58.232 120.877 -129.792 c 0 -71.574 -54.242 -129.807 -120.877 -129.807 c -16.219 0 -29.41 -13.191 -29.41 -29.425 s 13.191 -29.425 29.41 -29.425 c 99.102 0 179.727 84.63 179.727 188.642 c 0 33.416 -8.433 66.184 -24.365 94.75 a 186.488 186.488 0 0 1 -48.987 57.284 c 47.752 20.66 89.073 54.844 119.869 99.268 c 35.192 50.823 53.714 110.787 53.609 173.462 a 29.47 29.47 0 0 1 -29.44 29.395 Z" fill="#8a8a8a" p-id="17793"></path></svg>