<?xml version="1.0" standalone="no"?><!DOCTYPE svg PUBLIC "-//W3C//DTD SVG 1.1//EN" "http://www.w3.org/Graphics/SVG/1.1/DTD/svg11.dtd"><svg t="1558758123487" class="icon" style="" viewBox="0 0 1706 1024" version="1.1" xmlns="http://www.w3.org/2000/svg" p-id="16584" xmlns:xlink="http://www.w3.org/1999/xlink" width="53.3125" height="32"><defs><style type="text/css"></style></defs><path d="M319.715556 201.159111a34.702222 34.702222 0 1 0 0 69.404445 34.702222 34.702222 0 0 0 0-69.404445zM1686.983111 99.669333a34.474667 34.474667 0 0 0-35.384889 1.365334L1255.082667 362.951111V166.570667c0-76.572444-62.008889-138.581333-138.581334-138.581334H250.311111C173.852444 27.989333 111.729778 89.884444 111.729778 166.570667v692.906666c0 76.572444 62.122667 138.581333 138.581333 138.581334h866.190222c76.572444 0 138.581333-62.008889 138.581334-138.581334V692.451556l396.401777 266.012444a34.588444 34.588444 0 0 0 53.703112-29.013333V130.048a34.588444 34.588444 0 0 0-18.204445-30.378667z m-501.304889 321.194667a34.702222 34.702222 0 0 0-0.682666 6.940444v199.224889c0 2.275556 0.227556 4.664889 0.682666 6.940445v225.507555a69.404444 69.404444 0 0 1-69.290666 69.404445H250.311111a69.404444 69.404444 0 0 1-69.290667-69.404445v-692.906666a69.404444 69.404444 0 0 1 69.404445-69.404445h866.076444a69.404444 69.404444 0 0 1 69.404445 69.404445v254.293333z m450.104889 444.302222L1254.968889 608.824889V446.236444l380.814222-252.586666v671.516444z" p-id="16585"></path></svg>