<?xml version="1.0" standalone="no"?><!DOCTYPE svg PUBLIC "-//W3C//DTD SVG 1.1//EN" "http://www.w3.org/Graphics/SVG/1.1/DTD/svg11.dtd"><svg t="1559045221525" class="icon" style="" viewBox="0 0 1024 1024" version="1.1" xmlns="http://www.w3.org/2000/svg" p-id="23562" xmlns:xlink="http://www.w3.org/1999/xlink" width="200" height="200"><defs><style type="text/css"></style></defs><path d="M6.03239 245.781776l0 532.588921 1010.083036 0L1016.115426 245.781776 6.03239 245.781776zM997.750149 760.006444 24.396643 760.006444 24.396643 264.147052l973.352483 0L997.749126 760.006444z" p-id="23563" fill="#f596aa"></path><path d="M311.349097 491.706815 330.000899 491.706815 330.000899 379.793956 357.261777 379.793956 357.261777 362.576829 166.43666 362.576829 166.43666 379.793956 311.349097 379.793956Z" p-id="23564" fill="#f596aa"></path><path d="M272.609795 559.140647l-93.260034 0 0 90.390683 17.217127 0 0-15.782451 76.042907 0L272.609795 559.140647zM255.392668 617.966427l-58.82578 0 0-43.043329 58.82578 0L255.392668 617.966427z" p-id="23565" fill="#f596aa"></path><path d="M638.4786 365.446179c-8.609075-8.609075-14.347776-14.82566-17.217127-18.651802l-15.782451 11.478426c13.387915 11.478426 26.78504 26.305109 40.173978 44.478004l17.217127-11.478426C659.999752 387.446239 651.866515 378.837164 638.4786 365.446179z" p-id="23566" fill="#f596aa"></path><path d="M434.740382 445.793112l-18.651802 0c0 41.130769-2.394537 73.652464-7.173376 97.565083-7.649214 50.695612-31.564903 94.695732-71.738881 131.999336 1.910513 1.913583 4.304026 4.304026 7.173376 7.173376 2.869351 3.827165 4.779863 6.217608 5.738701 7.173376 44.953841-43.043329 69.828368-91.825358 74.608232-146.347113 11.478426 57.392128 35.394115 104.738459 71.738881 142.043087 4.779863-5.738701 9.567913-10.520611 14.347776-14.347776-39.214117-35.391045-65.524342-89.912799-78.912257-163.564239C433.780521 489.315348 434.740382 468.749964 434.740382 445.793112z" p-id="23567" fill="#f596aa"></path><path d="M311.349097 650.967028c0.959861 15.304568-6.214539 22.478967-21.521153 21.521153-4.779863 0-11.002588-0.477884-18.651802-1.434675l-15.782451 0c1.910513 6.696516 2.869351 12.913101 2.869351 18.651802l37.304627 0c23.915689 0 35.394115-12.434194 34.434254-37.304627L330.001923 527.575744l34.434254 0 0-17.217127L162.132634 510.358617l0 17.217127 149.216463 0L311.349097 650.967028z" p-id="23568" fill="#f596aa"></path><path d="M367.305527 483.09774c9.567913-21.043269 18.651802-43.043329 27.260877-66.00018l91.825358 0-18.651802 58.82578c5.738701 0.956791 11.478426 2.39249 17.217127 4.304026l18.651802-61.695131 0-17.217127-101.869109 0c1.910513-5.738701 4.304026-13.868869 7.173376-24.391527 3.829212-11.478426 6.214539-19.608593 7.173376-24.391527l-17.217127-4.304026c-10.518564 43.043329-26.78504 85.130889-48.78203 126.260635C355.827101 477.359039 361.566826 480.228389 367.305527 483.09774z" p-id="23569" fill="#f596aa"></path><path d="M692.99933 694.010357l20.086477 0 0-74.608232 162.129564 0 0-18.651802L713.086831 600.750323l0-44.478004 126.260635 0L839.347466 402.749784l-76.042907 0c11.478426-13.390985 23.431665-28.695552 35.868929-45.912679l-17.217127-10.04375c-14.347776 20.086477-24.866341 34.434254-31.564903 43.043329-4.779863 5.738701-8.133238 10.04375-10.04375 12.913101l-94.695732 0-78.912257 0 0 153.521512 126.260635 0 0 44.478004L530.869766 600.7493l0 18.651802 162.129564 0L692.99933 694.010357zM713.086831 421.402609l107.60781 0 0 48.78203L713.086831 470.184639 713.086831 421.402609zM713.086831 487.401766l107.60781 0 0 50.216705L713.086831 537.618471 713.086831 487.401766zM585.391521 421.402609l107.60781 0 0 48.78203L585.391521 470.184639 585.391521 421.402609zM585.391521 537.619494l0-50.216705 107.60781 0 0 50.216705L585.391521 537.619494z" p-id="23570" fill="#f596aa"></path><path d="M274.04447 480.228389l0-70.304206-91.825358 0 0 70.304206L274.04447 480.228389zM199.436238 425.706635l55.95643 0 0 38.739303L199.436238 464.445938 199.436238 425.706635z" p-id="23571" fill="#f596aa"></path></svg>