<?xml version="1.0" standalone="no"?><!DOCTYPE svg PUBLIC "-//W3C//DTD SVG 1.1//EN" "http://www.w3.org/Graphics/SVG/1.1/DTD/svg11.dtd"><svg t="1558715698397" class="icon" style="" viewBox="0 0 1024 1024" version="1.1" xmlns="http://www.w3.org/2000/svg" p-id="12912" xmlns:xlink="http://www.w3.org/1999/xlink" width="200" height="200"><defs><style type="text/css"></style></defs><path d="M969.6 664L712 406.4c-12.8-12.8-12.8-32 0-44.8 12.8-12.8 32-12.8 44.8 0l257.6 257.6c12.8 12.8 12.8 32 0 44.8-12.8 11.2-32 11.2-44.8 0z" p-id="12913"></path><path d="M712 617.6l257.6-257.6c12.8-12.8 32-12.8 44.8 0 12.8 12.8 12.8 32 0 44.8L756.8 664c-12.8 12.8-32 12.8-44.8 0-12.8-12.8-12.8-33.6 0-46.4zM550.4 1020.8c-24 0-49.6-11.2-73.6-32L249.6 803.2h-86.4C72 803.2 0 731.2 0 640V374.4c0-88 73.6-161.6 161.6-161.6h80L472 32c51.2-40 89.6-32 108.8-22.4 17.6 9.6 49.6 33.6 49.6 100.8v808c0 46.4-17.6 81.6-48 96-11.2 4.8-20.8 6.4-32 6.4zM161.6 276.8c-52.8 0-97.6 44.8-97.6 97.6V640c0 54.4 43.2 97.6 97.6 97.6H272l246.4 201.6c17.6 16 30.4 19.2 35.2 16 4.8-1.6 11.2-14.4 11.2-38.4V110.4c0-25.6-6.4-40-12.8-43.2-6.4-3.2-20.8 0-40 16L265.6 276.8h-104z" p-id="12914"></path></svg>